<svg width="25" height="25" viewBox="0 0 25 25" fill="none" xmlns="http://www.w3.org/2000/svg">
<path d="M12.5 14C16.2266 14 19.25 10.9766 19.25 7.25C19.25 3.52344 16.2266 0.5 12.5 0.5C8.77344 0.5 5.75 3.52344 5.75 7.25C5.75 10.9766 8.77344 14 12.5 14ZM18.5 15.5H15.9172C14.8766 15.9781 13.7188 16.25 12.5 16.25C11.2812 16.25 10.1281 15.9781 9.08281 15.5H6.5C3.18594 15.5 0.5 18.1859 0.5 21.5V22.25C0.5 23.4922 1.50781 24.5 2.75 24.5H22.25C23.4922 24.5 24.5 23.4922 24.5 22.25V21.5C24.5 18.1859 21.8141 15.5 18.5 15.5Z" fill="#0F0F0F"/>
</svg>
