<svg width="25" height="25" viewBox="0 0 25 25" fill="none" xmlns="http://www.w3.org/2000/svg">
<g clip-path="url(#clip0_679_287)">
<path d="M22.5 3.16675H2.5C1.39583 3.16675 0.5 4.06258 0.5 5.16675V19.8334C0.5 20.9376 1.39583 21.8334 2.5 21.8334H22.5C23.6042 21.8334 24.5 20.9376 24.5 19.8334V5.16675C24.5 4.06258 23.6042 3.16675 22.5 3.16675ZM7.83333 7.16675C9.30417 7.16675 10.5 8.36258 10.5 9.83341C10.5 11.3042 9.30417 12.5001 7.83333 12.5001C6.3625 12.5001 5.16667 11.3042 5.16667 9.83341C5.16667 8.36258 6.3625 7.16675 7.83333 7.16675ZM12.5 17.0334C12.5 17.4751 12.0833 17.8334 11.5667 17.8334H4.1C3.58333 17.8334 3.16667 17.4751 3.16667 17.0334V16.2334C3.16667 14.9084 4.42083 13.8334 5.96667 13.8334H6.175C6.6875 14.0459 7.24583 14.1667 7.83333 14.1667C8.42083 14.1667 8.98333 14.0459 9.49167 13.8334H9.7C11.2458 13.8334 12.5 14.9084 12.5 16.2334V17.0334ZM21.8333 14.8334C21.8333 15.0167 21.6833 15.1667 21.5 15.1667H15.5C15.3167 15.1667 15.1667 15.0167 15.1667 14.8334V14.1667C15.1667 13.9834 15.3167 13.8334 15.5 13.8334H21.5C21.6833 13.8334 21.8333 13.9834 21.8333 14.1667V14.8334ZM21.8333 12.1667C21.8333 12.3501 21.6833 12.5001 21.5 12.5001H15.5C15.3167 12.5001 15.1667 12.3501 15.1667 12.1667V11.5001C15.1667 11.3167 15.3167 11.1667 15.5 11.1667H21.5C21.6833 11.1667 21.8333 11.3167 21.8333 11.5001V12.1667ZM21.8333 9.50008C21.8333 9.68341 21.6833 9.83341 21.5 9.83341H15.5C15.3167 9.83341 15.1667 9.68341 15.1667 9.50008V8.83341C15.1667 8.65008 15.3167 8.50008 15.5 8.50008H21.5C21.6833 8.50008 21.8333 8.65008 21.8333 8.83341V9.50008Z" fill="#0F0F0F"/>
</g>
<defs>
<clipPath id="clip0_679_287">
<rect width="24" height="24" fill="white" transform="translate(0.5 0.5)"/>
</clipPath>
</defs>
</svg>
