<svg width="16" height="16" viewBox="0 0 16 16" fill="none" xmlns="http://www.w3.org/2000/svg">
<path d="M8.00938 8.53125L3.75938 12.7812C3.46563 13.075 2.99063 13.075 2.7 12.7812L1.99375 12.075C1.7 11.7812 1.7 11.3062 1.99375 11.0156L5.00625 8.00312L1.99375 4.99062C1.7 4.69687 1.7 4.22187 1.99375 3.93125L2.69687 3.21875C2.99062 2.925 3.46562 2.925 3.75625 3.21875L8.00625 7.46875C8.30312 7.7625 8.30312 8.2375 8.00938 8.53125ZM14.0094 7.46875L9.75937 3.21875C9.46562 2.925 8.99062 2.925 8.7 3.21875L7.99375 3.925C7.7 4.21875 7.7 4.69375 7.99375 4.98437L11.0063 7.99687L7.99375 11.0094C7.7 11.3031 7.7 11.7781 7.99375 12.0687L8.7 12.775C8.99375 13.0687 9.46875 13.0687 9.75937 12.775L14.0094 8.525C14.3031 8.2375 14.3031 7.7625 14.0094 7.46875Z" fill="white"/>
</svg>
