<svg width="16" height="16" viewBox="0 0 16 16" fill="none" xmlns="http://www.w3.org/2000/svg">
<path d="M7.99068 7.46875L12.2407 3.21875C12.5344 2.925 13.0094 2.925 13.3001 3.21875L14.0063 3.925C14.3001 4.21875 14.3001 4.69375 14.0063 4.98437L10.9969 8L14.0094 11.0125C14.3032 11.3062 14.3032 11.7812 14.0094 12.0719L13.3032 12.7812C13.0094 13.075 12.5344 13.075 12.2438 12.7812L7.9938 8.53125C7.69693 8.2375 7.69693 7.7625 7.99068 7.46875ZM1.99068 8.53125L6.24068 12.7812C6.53443 13.075 7.00943 13.075 7.30005 12.7812L8.0063 12.075C8.30005 11.7812 8.30005 11.3062 8.0063 11.0156L4.99693 8L8.00943 4.9875C8.30318 4.69375 8.30318 4.21875 8.00943 3.92812L7.30318 3.21875C7.00943 2.925 6.53443 2.925 6.2438 3.21875L1.9938 7.46875C1.69693 7.7625 1.69693 8.2375 1.99068 8.53125Z" fill="white"/>
</svg>
