<svg width="30" height="30" viewBox="0 0 30 30" fill="none" xmlns="http://www.w3.org/2000/svg">
<rect x="0.5" y="0.5" width="29" height="29" rx="5.5" fill="white"/>
<rect x="0.5" y="0.5" width="29" height="29" rx="5.5" stroke="#CCCCCC"/>
<g clip-path="url(#clip0_79_1840)">
<path d="M15.7851 19.432L15.2648 19.9523C15.0445 20.1727 14.6882 20.1727 14.4703 19.9523L9.91401 15.3984C9.6937 15.1781 9.6937 14.8219 9.91401 14.6039L14.4703 10.0477C14.6906 9.82734 15.0468 9.82734 15.2648 10.0477L15.7851 10.568C16.0078 10.7906 16.0031 11.1539 15.7757 11.3719L12.9515 14.0625H19.6875C19.9992 14.0625 20.25 14.3133 20.25 14.625V15.375C20.25 15.6867 19.9992 15.9375 19.6875 15.9375H12.9515L15.7757 18.6281C16.0054 18.8461 16.0101 19.2094 15.7851 19.432Z" fill="#979797"/>
</g>
<defs>
<clipPath id="clip0_79_1840">
<rect width="12" height="12" fill="white" transform="translate(9 9)"/>
</clipPath>
</defs>
</svg>
