<svg width="30" height="30" viewBox="0 0 30 30" fill="none" xmlns="http://www.w3.org/2000/svg">
<rect x="0.5" y="0.5" width="29" height="29" rx="5.5" fill="white"/>
<rect x="0.5" y="0.5" width="29" height="29" rx="5.5" stroke="#CCCCCC"/>
<g clip-path="url(#clip0_79_1843)">
<path d="M14.2148 10.568L14.7352 10.0477C14.9555 9.82734 15.3117 9.82734 15.5297 10.0477L20.0859 14.6016C20.3062 14.8219 20.3062 15.1781 20.0859 15.3961L15.5297 19.9523C15.3094 20.1727 14.9531 20.1727 14.7352 19.9523L14.2148 19.432C13.9922 19.2094 13.9969 18.8461 14.2242 18.6281L17.0484 15.9375H10.3125C10.0008 15.9375 9.75 15.6867 9.75 15.375V14.625C9.75 14.3133 10.0008 14.0625 10.3125 14.0625H17.0484L14.2242 11.3719C13.9945 11.1539 13.9898 10.7906 14.2148 10.568Z" fill="#979797"/>
</g>
<defs>
<clipPath id="clip0_79_1843">
<rect width="12" height="12" fill="white" transform="translate(9 9)"/>
</clipPath>
</defs>
</svg>
