<svg width="15" height="15" viewBox="0 0 15 15" fill="none" xmlns="http://www.w3.org/2000/svg">
<g clip-path="url(#clip0_79_1279)">
<path d="M14.5 4.4375V12.3125C14.5 13.0371 13.9121 13.625 13.1875 13.625H1.8125C1.08789 13.625 0.5 13.0371 0.5 12.3125V4.4375C0.5 3.71289 1.08789 3.125 1.8125 3.125H4.21875L4.55508 2.22539C4.74648 1.71406 5.23594 1.375 5.78281 1.375H9.21445C9.76133 1.375 10.2508 1.71406 10.4422 2.22539L10.7812 3.125H13.1875C13.9121 3.125 14.5 3.71289 14.5 4.4375ZM10.7812 8.375C10.7812 6.56484 9.31016 5.09375 7.5 5.09375C5.68984 5.09375 4.21875 6.56484 4.21875 8.375C4.21875 10.1852 5.68984 11.6562 7.5 11.6562C9.31016 11.6562 10.7812 10.1852 10.7812 8.375ZM9.90625 8.375C9.90625 9.70117 8.82617 10.7812 7.5 10.7812C6.17383 10.7812 5.09375 9.70117 5.09375 8.375C5.09375 7.04883 6.17383 5.96875 7.5 5.96875C8.82617 5.96875 9.90625 7.04883 9.90625 8.375Z" fill="black"/>
</g>
<defs>
<clipPath id="clip0_79_1279">
<rect width="14" height="14" fill="white" transform="translate(0.5 0.5)"/>
</clipPath>
</defs>
</svg>
