<svg width="24" height="24" viewBox="0 0 24 24" fill="none" xmlns="http://www.w3.org/2000/svg">
<g clip-path="url(#clip0_79_2930)">
<path d="M8.95958 4.29376L5.2525 8.00001H1C0.4475 8.00001 0 8.44751 0 9.00001V15C0 15.5521 0.4475 16 1 16H5.2525L8.95958 19.7063C9.58583 20.3325 10.6667 19.8925 10.6667 18.9992V5.00084C10.6667 4.10668 9.585 3.66834 8.95958 4.29376ZM18.6813 2.16543C18.2158 1.86001 17.5904 1.98876 17.285 2.45501C16.9792 2.92043 17.1092 3.54584 17.5746 3.85126C20.3358 5.66334 21.9837 8.70959 21.9837 12.0004C21.9837 15.2913 20.3358 18.3375 17.5746 20.1496C17.1092 20.4546 16.9792 21.0804 17.285 21.5454C17.5783 21.9917 18.1988 22.1521 18.6813 21.835C22.0113 19.6492 24 15.9721 24 12C24 8.02793 22.0113 4.35126 18.6813 2.16543ZM20 12C20 9.35293 18.6642 6.91918 16.4263 5.49001C15.96 5.19251 15.3417 5.33084 15.0462 5.80084C14.7508 6.27084 14.8888 6.89293 15.355 7.19084C17.0112 8.24876 18 10.0463 18 12C18 13.9538 17.0112 15.7513 15.355 16.8092C14.8888 17.1067 14.7508 17.7288 15.0462 18.1992C15.3175 18.6308 15.9263 18.83 16.4263 18.51C18.6642 17.0808 20 14.6475 20 12ZM14.0929 8.79709C13.6104 8.53334 13.0017 8.70709 12.7342 9.19084C12.4679 9.67459 12.6442 10.2825 13.1279 10.5496C13.6658 10.845 14 11.4013 14 12C14 12.5992 13.6658 13.155 13.1283 13.4504C12.6446 13.7175 12.4683 14.3254 12.7346 14.8092C13.0025 15.295 13.6117 15.4675 14.0933 15.2029C15.2696 14.555 16.0004 13.3279 16.0004 11.9996C16.0004 10.6713 15.2696 9.44459 14.0929 8.79709Z" fill="#0F0F0F"/>
</g>
<defs>
<clipPath id="clip0_79_2930">
<rect width="24" height="24" fill="white"/>
</clipPath>
</defs>
</svg>
