<svg width="24" height="24" viewBox="0 0 24 24" fill="none" xmlns="http://www.w3.org/2000/svg">
<path d="M11.9859 11.2031L18.3609 4.82815C18.8015 4.38752 19.514 4.38752 19.95 4.82815L21.0093 5.88752C21.45 6.32815 21.45 7.04065 21.0093 7.47659L16.4953 12L21.014 16.5188C21.4546 16.9594 21.4546 17.6719 21.014 18.1078L19.9546 19.1719C19.514 19.6125 18.8015 19.6125 18.3656 19.1719L11.9906 12.7969C11.5453 12.3563 11.5453 11.6438 11.9859 11.2031ZM2.98589 12.7969L9.36089 19.1719C9.80152 19.6125 10.514 19.6125 10.95 19.1719L12.0093 18.1125C12.45 17.6719 12.45 16.9594 12.0093 16.5235L7.49527 12L12.014 7.48127C12.4546 7.04065 12.4546 6.32815 12.014 5.89221L10.9546 4.82815C10.514 4.38752 9.80152 4.38752 9.36558 4.82815L2.99058 11.2031C2.54527 11.6438 2.54527 12.3563 2.98589 12.7969Z" fill="#0F0F0F"/>
</svg>
