<svg width="24" height="24" viewBox="0 0 24 24" fill="none" xmlns="http://www.w3.org/2000/svg">
<path d="M12.0141 12.7969L5.63906 19.1719C5.19844 19.6125 4.48594 19.6125 4.05 19.1719L2.99062 18.1125C2.55 17.6719 2.55 16.9594 2.99062 16.5235L7.50937 12.0047L2.99062 7.48596C2.55 7.04534 2.55 6.33284 2.99062 5.8969L4.04531 4.82815C4.48594 4.38752 5.19844 4.38752 5.63437 4.82815L12.0094 11.2031C12.4547 11.6438 12.4547 12.3563 12.0141 12.7969ZM21.0141 11.2031L14.6391 4.82815C14.1984 4.38752 13.4859 4.38752 13.05 4.82815L11.9906 5.88752C11.55 6.32815 11.55 7.04065 11.9906 7.47659L16.5094 11.9953L11.9906 16.5141C11.55 16.9547 11.55 17.6672 11.9906 18.1031L13.05 19.1625C13.4906 19.6031 14.2031 19.6031 14.6391 19.1625L21.0141 12.7875C21.4547 12.3563 21.4547 11.6438 21.0141 11.2031Z" fill="#0F0F0F"/>
</svg>
