<svg width="16" height="16" viewBox="0 0 16 16" fill="none" xmlns="http://www.w3.org/2000/svg">
<path fill-rule="evenodd" clip-rule="evenodd" d="M8 16C12.4183 16 16 12.4183 16 8C16 3.58172 12.4183 0 8 0C3.58172 0 0 3.58172 0 8C0 12.4183 3.58172 16 8 16Z" fill="#FF6B00"/>
<path fill-rule="evenodd" clip-rule="evenodd" d="M12.9497 6.29289C13.3402 5.90236 13.3402 5.2692 12.9497 4.87867C12.5592 4.48815 11.926 4.48815 11.5355 4.87867L6.58576 9.82842L4.46444 7.7071C4.07391 7.31658 3.44075 7.31658 3.05022 7.7071C2.6597 8.09763 2.6597 8.73079 3.05022 9.12131L5.87865 11.9497C6.26917 12.3403 6.90234 12.3403 7.29286 11.9497L12.9497 6.29289Z" fill="white"/>
</svg>
