<svg width="25" height="24" viewBox="0 0 25 24" fill="none" xmlns="http://www.w3.org/2000/svg">
<g clip-path="url(#clip0_679_301)">
<path d="M24.5 8.25005C24.5 12.8064 20.8063 16.5 16.25 16.5C15.7241 16.5 15.2098 16.4502 14.7112 16.3561L13.5857 17.6224C13.4801 17.7412 13.3506 17.8362 13.2057 17.9013C13.0608 17.9664 12.9037 18 12.7448 18H11V19.875C11 20.4963 10.4963 21 9.875 21H8V22.875C8 23.4963 7.49633 24 6.875 24H1.625C1.00367 24 0.5 23.4963 0.5 22.875V19.216C0.5 18.9176 0.618547 18.6315 0.829484 18.4205L8.41395 10.836C8.14569 10.0225 8 9.15333 8 8.25C8 3.69366 11.6936 4.68755e-05 16.25 4.47777e-10C20.8197 -4.68746e-05 24.5 3.6802 24.5 8.25005ZM16.25 6C16.25 7.24266 17.2573 8.25 18.5 8.25C19.7427 8.25 20.75 7.24266 20.75 6C20.75 4.75734 19.7427 3.75 18.5 3.75C17.2573 3.75 16.25 4.75734 16.25 6Z" fill="#0F0F0F"/>
</g>
<defs>
<clipPath id="clip0_679_301">
<rect width="24" height="24" fill="white" transform="translate(0.5)"/>
</clipPath>
</defs>
</svg>
