<svg width="33" height="24" viewBox="0 0 33 24" fill="none" xmlns="http://www.w3.org/2000/svg">
<path fill-rule="evenodd" clip-rule="evenodd" d="M13.185 1C7.14024 1 2.23999 4.69365 2.23999 9.25C2.23999 13.8063 7.14024 17.5 13.185 17.5C15.8491 17.5 18.2909 16.7825 20.1889 15.59L27.7381 21.2803C28.1267 21.5732 28.7567 21.5732 29.1453 21.2803C29.5338 20.9874 29.5338 20.5126 29.1453 20.2197L21.596 14.5293C23.1782 13.0987 24.13 11.2581 24.13 9.25C24.13 4.69365 19.2298 1 13.185 1ZM4.22999 9.25C4.22999 5.52208 8.23929 2.5 13.185 2.5C18.1307 2.5 22.14 5.52208 22.14 9.25C22.14 12.9779 18.1307 16 13.185 16C8.23929 16 4.22999 12.9779 4.22999 9.25Z" fill="#24292F"/>
</svg>
