<svg width="20" height="20" viewBox="0 0 20 20" fill="none" xmlns="http://www.w3.org/2000/svg">
<g clip-path="url(#clip0_98_1456)">
<path d="M7.46632 3.57812L4.37708 6.66666H0.833333C0.372917 6.66666 0 7.03958 0 7.5V12.5C0 12.9601 0.372917 13.3333 0.833333 13.3333H4.37708L7.46632 16.4219C7.98819 16.9437 8.88889 16.5771 8.88889 15.8326V4.16736C8.88889 3.42222 7.9875 3.05694 7.46632 3.57812ZM15.5677 1.80451C15.1799 1.55 14.6587 1.65729 14.4042 2.04583C14.1493 2.43368 14.2576 2.95486 14.6455 3.20937C16.9465 4.71944 18.3198 7.25798 18.3198 10.0003C18.3198 12.7427 16.9465 15.2812 14.6455 16.7913C14.2576 17.0455 14.1493 17.567 14.4042 17.9545C14.6486 18.3264 15.1656 18.4601 15.5677 18.1958C18.3427 16.3743 20 13.3101 20 10C20 6.68993 18.3427 3.62604 15.5677 1.80451ZM16.6667 10C16.6667 7.7941 15.5535 5.76597 13.6885 4.575C13.3 4.32708 12.7847 4.44236 12.5385 4.83403C12.2924 5.22569 12.4073 5.74409 12.7958 5.99236C14.176 6.87396 15 8.37187 15 10C15 11.6281 14.176 13.126 12.7958 14.0076C12.4073 14.2556 12.2924 14.774 12.5385 15.166C12.7646 15.5257 13.2719 15.6917 13.6885 15.425C15.5535 14.234 16.6667 12.2062 16.6667 10ZM11.7441 7.3309C11.342 7.11111 10.8347 7.2559 10.6118 7.65903C10.3899 8.06215 10.5368 8.56875 10.9399 8.79132C11.3882 9.0375 11.6667 9.50104 11.6667 10C11.6667 10.4993 11.3882 10.9625 10.9403 11.2087C10.5372 11.4312 10.3903 11.9378 10.6122 12.341C10.8354 12.7458 11.3431 12.8896 11.7444 12.6691C12.7247 12.1292 13.3337 11.1066 13.3337 9.99965C13.3337 8.89271 12.7247 7.87048 11.7441 7.3309Z" fill="#DCDCDC"/>
</g>
<defs>
<clipPath id="clip0_98_1456">
<rect width="20" height="20" fill="white"/>
</clipPath>
</defs>
</svg>
